<svg t="1751450310454" class="icon" viewBox="0 0 1024 1024" version="1.1" xmlns="http://www.w3.org/2000/svg" p-id="20886" width="200" height="200"><path d="M770.444167 676.042123c-12.755512-4.833075-29.79356-3.89368-43.162032 0.201591-10.426467 3.194762-18.521842 14.845103-27.00812 23.378453-32.869618 33.050744-64.582901 67.301825-98.377588 99.366102-66.884316 63.455217-146.885372 82.995249-234.733139 58.744939-178.375573-49.244564-239.021815-269.195022-112.842021-407.566486 44.168965-48.434106 91.899036-93.625354 138.127917-140.172483 38.926568-39.195697 76.382645-80.059384 117.500111-116.815519 46.993291-42.006719 102.598726-47.119157 159.564136-22.355147 54.978149 23.90034 89.150436 81.746816 86.557378 141.610228-1.716084 39.613206-17.001209 73.819263-44.659129 101.96223-66.552765 67.723428-133.536342 135.026276-200.397123 202.446805-4.854565 4.89345-9.66615 10.036587-15.285125 13.929244-22.686698 15.7231-47.721885 14.890128-66.721611-1.682315-19.647479-17.137309-24.056905-47.155996-8.463766-70.670549 7.522324-11.342326 18.238386-20.640086 27.910677-30.466895 36.32737-36.908608 73.595158-72.932056 108.954481-110.742197 20.335141-21.745257 19.86749-48.123021 2.562359-64.62895-16.987906-16.204054-39.97034-17.528212-60.246129 2.200108-49.465598 48.13223-99.720166 95.915513-144.565537 148.205437-48.121997 56.108902-40.022529 137.213082 12.516058 187.54849 53.051263 50.828642 132.703371 54.700833 187.293687 2.5071 79.812767-76.308967 159.152766-153.676032 232.256738-236.288564 82.663698-93.414553 70.417793-237.774405-20.013823-323.316663-91.438549-86.49291-230.549863-86.895069-322.82343 2.477424-85.547375 82.860173-169.046091 167.909198-251.502058 253.858732-61.115939 63.706951-90.974991 141.374868-90.193185 267.86984 0.13303 214.446094 263.751033 375.566678 484.495576 257.977539 79.574337-42.388413 131.634016-115.712395 194.09458-177.24789 4.490268-4.424776 6.808056-12.06785 8.026814-18.608823C792.770661 701.193966 788.462542 682.869622 770.444167 676.042123z" p-id="20887"></path><path d="M875.576599 540.061103c-26.27134 1.769296-59.405995 36.730553-59.505255 62.785975-0.091074 23.986297 18.956747 43.364647 42.091654 42.825364 26.293853-0.61296 64.472384-40.58637 63.124689-66.093301C920.085302 556.789089 898.91719 538.490328 875.576599 540.061103z" p-id="20888"></path></svg>