<svg t="1752394498994" class="icon" viewBox="0 0 1024 1024" version="1.1" xmlns="http://www.w3.org/2000/svg" p-id="12523" width="200" height="200"><path d="M283.232 672H772.8c14.496 0 27.232 14.784 27.232 31.616s-12.736 31.648-27.232 31.648H283.2c-14.496 0-27.232-14.816-27.232-31.648 0-16.96 12.736-31.616 27.232-31.616z m0-192H772.8c14.496 0 27.232 14.784 27.232 31.616s-12.736 31.648-27.232 31.648H283.2c-14.496 0-27.232-14.816-27.232-31.648 0-16.96 12.736-31.616 27.232-31.616z m0-192H772.8c14.496 0 27.232 14.784 27.232 31.616s-12.736 31.648-27.232 31.648H283.2c-14.496 0-27.232-14.816-27.232-31.648 0-16.96 12.736-31.616 27.232-31.616z" p-id="12524"></path></svg>