<svg t="1751449474910" class="icon" viewBox="0 0 1024 1024" version="1.1" xmlns="http://www.w3.org/2000/svg" p-id="13927" width="200" height="200"><path d="M151.808 848.8448h682.820267v100.932267H151.808z" p-id="13928"></path><path d="M442.760533 753.834667h100.932267v195.9424h-100.932267z" p-id="13929"></path><path d="M69.461333 108.561067v656.810666h860.9792v-657.066666H69.461333z m760.064 555.8272H170.3424V209.152h659.182933z" p-id="13930"></path><path d="M250.7264 440.4736a128.6144 128.6144 0 0 1 82.244267-121.6512 158.8224 158.8224 0 0 1 111.394133 0 131.959467 131.959467 0 0 1 43.861333 27.972267 128 128 0 0 1 28.6208 41.8816 135.918933 135.918933 0 0 1 0 103.594666A128.256 128.256 0 0 1 488.226133 534.186667a131.652267 131.652267 0 0 1-43.861333 27.9552 158.5664 158.5664 0 0 1-111.394133 0 129.058133 129.058133 0 0 1-82.244267-121.634134z m67.857067 0a66.56 66.56 0 0 0 5.632 27.477333 68.642133 68.642133 0 0 0 37.546666 36.232534 72.226133 72.226133 0 0 0 76.458667-14.3872 68.4032 68.4032 0 0 0 15.36-21.845334 69.8368 69.8368 0 0 0 0-54.954666 68.4032 68.4032 0 0 0-15.36-21.845334 72.840533 72.840533 0 0 0-76.458667-14.404266A68.744533 68.744533 0 0 0 324.266667 413.013333a66.56 66.56 0 0 0-5.6832 27.460267zM705.1776 379.562667a79.5648 79.5648 0 0 0-21.179733-12.731734 56.1152 56.1152 0 0 0-20.48-4.1472c-8.3968 0-15.223467 1.9968-20.48 5.956267a18.5856 18.5856 0 0 0-7.936 15.5648 15.36 15.36 0 0 0 3.976533 10.922667 34.594133 34.594133 0 0 0 10.410667 7.441066 88.746667 88.746667 0 0 0 14.574933 5.461334q8.123733 2.321067 16.059733 4.9664 31.778133 10.5984 46.4896 28.296533t14.728534 46.1824a89.856 89.856 0 0 1-6.536534 34.7648 72.430933 72.430933 0 0 1-18.858666 26.658133 87.04 87.04 0 0 1-30.464 17.2032 126.839467 126.839467 0 0 1-40.874667 6.126934q-47.342933 0-87.7056-28.142934l27.8016-52.292266a113.066667 113.066667 0 0 0 28.791467 19.2 69.154133 69.154133 0 0 0 28.2112 6.263466q15.872 0 23.6544-7.2704a22.186667 22.186667 0 0 0 7.7824-16.554666 22.493867 22.493867 0 0 0-1.979734-9.762134 21.1968 21.1968 0 0 0-6.621866-7.611733 52.6336 52.6336 0 0 0-12.0832-6.4512q-7.441067-3.003733-18.039467-6.621867-12.578133-3.959467-24.661333-8.772266a77.687467 77.687467 0 0 1-21.521067-12.7488 59.170133 59.170133 0 0 1-15.223467-20.0192q-5.7856-12.0832-5.7856-30.6176a88.2688 88.2688 0 0 1 6.126934-33.604267A74.820267 74.820267 0 0 1 590.506667 331.400533a76.8 76.8 0 0 1 27.153066-16.708266 102.4 102.4 0 0 1 35.84-5.956267 157.525333 157.525333 0 0 1 38.724267 5.12 171.093333 171.093333 0 0 1 38.724267 15.069867z" p-id="13931"></path></svg>