<svg t="1758509608844" class="icon" viewBox="0 0 1072 1024" version="1.1" xmlns="http://www.w3.org/2000/svg" p-id="4537" width="200" height="200"><path d="M536.380952 29.257143C270.872381 29.257143 53.638095 246.491429 53.638095 512S270.872381 994.742857 536.380952 994.742857 1019.12381 777.508571 1019.12381 512 801.889524 29.257143 536.380952 29.257143z m0 911.847619c-236.007619 0-429.104762-193.097143-429.104762-429.104762 0-236.007619 193.097143-429.104762 429.104762-429.104762 236.007619 0 429.104762 193.097143 429.104762 429.104762 0 236.007619-193.097143 429.104762-429.104762 429.104762z" p-id="4538"></path><path d="M375.466667 632.685714a40.228571 40.228571 0 0 0 80.457143 0 40.228571 40.228571 0 0 0-80.457143 0zM402.285714 431.542857c-16.091429 0-26.819048 10.727619-26.819047 26.819048 0 16.091429 10.727619 26.819048 26.819047 26.819047 88.502857 0 160.914286 72.411429 160.914286 160.914286 0 16.091429 10.727619 26.819048 26.819048 26.819048 16.091429 0 26.819048-10.727619 26.819047-26.819048 0-118.00381-96.548571-214.552381-214.552381-214.552381z" p-id="4539"></path><path d="M402.285714 270.628571c-16.091429 0-26.819048 10.727619-26.819047 26.819048 0 16.091429 10.727619 26.819048 26.819047 26.819048 177.005714 0 321.828571 144.822857 321.828572 321.828571 0 16.091429 10.727619 26.819048 26.819047 26.819048 16.091429 0 26.819048-10.727619 26.819048-26.819048 0-206.506667-168.96-375.466667-375.466667-375.466667z" p-id="4540"></path></svg>
