<svg t="1751530649191" class="icon" viewBox="0 0 1024 1024" version="1.1" xmlns="http://www.w3.org/2000/svg" p-id="24501" width="200" height="200"><path d="M653.88544 0a92.16 92.16 0 0 1 65.09568 26.9312l187.61728 187.21792a92.16 92.16 0 0 1 27.05408 65.2288v120.6272A80.10752 80.10752 0 0 1 1013.76 480.09216v319.7952a80.10752 80.10752 0 0 1-77.55776 80.06656l-2.54976 0.03072v48.00512c0 53.02272-43.02848 96-96.12288 96H196.7104c-53.0944 0-96.12288-42.97728-96.12288-96v-48.00512A80.10752 80.10752 0 0 1 20.48 799.8976v-319.7952a80.10752 80.10752 0 0 1 77.55776-80.06656l2.54976-0.04096V96C100.58752 42.97728 143.616 0 196.7104 0h457.17504zM837.5296 879.99488H196.7104v17.28512a30.72 30.72 0 0 0 30.72 30.72h579.3792a30.72 30.72 0 0 0 30.72-30.72v-17.28512zM332.82048 559.49312h-60.30336L238.66368 719.36h41.85088l13.38368-63.55968h7.64928c6.07232 0 10.51648 0.90112 13.33248 2.69312 2.816 1.80224 4.74112 4.95616 5.79584 9.45152l11.24352 51.41504h41.96352l-11.80672-54.33344c-1.4336-6.98368-3.33824-12.288-5.7344-15.9232a32.18432 32.18432 0 0 0-10.1376-9.50272c14.0288-1.1264 24.87296-5.2224 32.52224-12.26752 7.64928-7.04512 11.4688-16.45568 11.4688-28.23168 0-13.12768-4.80256-23.00928-14.39744-29.6448-9.60512-6.63552-23.92064-9.96352-42.97728-9.96352z m193.39264 0h-52.992L378.7264 719.36h44.88192l19.12832-34.08896h62.6688l4.15744 34.08896h42.41408l-25.76384-159.86688z m97.19808 0h-40.04864l2.46784 159.86688h53.21728l35.10272-92.81536c2.0992-5.55008 4.17792-11.33568 6.2464-17.37728 2.048-6.0416 4.2496-12.76928 6.57408-20.19328h1.91488a514.94912 514.94912 0 0 0-1.40288 21.77024 909.23008 909.23008 0 0 0-0.73728 24.12544l-1.35168 84.49024h52.31616l67.50208-159.86688h-42.1888l-31.9488 88.20736a640 640 0 0 0-7.71072 22.38464 261.48864 261.48864 0 0 0-4.78208 16.76288h-1.56672a490.496 490.496 0 0 0 1.1264-17.7152c0.29696-6.42048 0.512-13.89568 0.6656-22.44608l1.1264-87.1936h-52.30592l-36.11648 91.68896c-1.50528 4.05504-3.2256 9.17504-5.1712 15.36s-4.01408 12.9536-6.1952 20.30592h-1.57696c1.28-13.12768 2.2528-24.56576 2.92864-34.304 0.67584-9.75872 1.01376-16.95744 1.01376-21.6064l0.90112-71.44448zM494.592 590.77632l7.65952 64.34816H459.1616l35.4304-64.34816z m-170.20928-2.02752c7.2704 0 12.76928 1.3824 16.4864 4.15744 3.70688 2.77504 5.57056 6.90176 5.57056 12.38016 0 6.59456-2.70336 11.71456-8.09984 15.36-5.40672 3.6352-13.056 5.44768-22.95808 5.44768h-15.18592l7.53664-37.34528h16.65024z m283.9552-500.4288H227.4304a30.72 30.72 0 0 0-30.72 30.72v280.95488h640.8192v-81.5616H700.52864c-50.8928-0.01024-92.14976-41.2672-92.16-92.16l-0.03072-137.95328z m96.12288 59.84256v58.91072a15.36 15.36 0 0 0 15.36 15.36h59.0848l-74.4448-74.27072z" p-id="24502"></path></svg>