<svg t="1752394453317" class="icon" viewBox="0 0 1024 1024" version="1.1" xmlns="http://www.w3.org/2000/svg" p-id="11539" width="200" height="200"><path d="M445.44 56.888889a29.582222 29.582222 0 0 1 29.582222 29.582222v186.140445a29.582222 29.582222 0 0 1-29.582222 29.582222L325.688889 302.08v168.732444h223.118222l0.056889-53.191111a29.582222 29.582222 0 0 1 29.582222-29.582222h319.146667a29.582222 29.582222 0 0 1 29.582222 29.582222v186.140445a29.582222 29.582222 0 0 1-29.582222 29.582222h-319.146667a29.582222 29.582222 0 0 1-29.582222-29.582222l-0.056889-53.191111H325.688889v253.895111h223.118222l0.056889-53.134222a29.582222 29.582222 0 0 1 29.582222-29.582223h319.146667a29.582222 29.582222 0 0 1 29.582222 29.582223v186.197333a29.582222 29.582222 0 0 1-29.582222 29.525333h-319.146667a29.582222 29.582222 0 0 1-29.582222-29.582222l-0.056889-53.248-273.294222 0.056889a29.582222 29.582222 0 0 1-29.582222-29.525333V302.136889H126.179556a29.582222 29.582222 0 0 1-29.013334-24.177778L96.711111 272.611556V86.471111A29.582222 29.582222 0 0 1 126.293333 56.888889h319.146667z m402.033778 744.561778h-219.022222V887.466667h219.022222v-86.016z m0-333.710223h-219.022222v85.959112h219.022222V467.740444zM395.320889 136.533333H176.355556v85.959111h218.965333V136.533333z" p-id="11540"></path></svg>