<svg t="1761490238199" class="icon" viewBox="0 0 1024 1024" version="1.1" xmlns="http://www.w3.org/2000/svg" p-id="2149" width="200" height="200"><path d="M96.6 915c-10.9-10.9-10.9-28.7 0-39.6L887 85c10.9-10.9 28.7-10.9 39.6 0 10.9 10.9 10.9 28.7 0 39.6L136.2 915c-10.9 10.9-28.6 10.9-39.6 0z" fill="" p-id="2150"></path><path d="M887 915L96.6 124.6c-10.9-10.9-10.9-28.7 0-39.6 10.9-10.9 28.7-10.9 39.6 0l790.4 790.4c10.9 10.9 10.9 28.7 0 39.6-10.9 10.9-28.6 10.9-39.6 0z" fill="" p-id="2151"></path></svg>